<?xml version="1.0" encoding="utf-8"?>
<!-- Generator: Adobe Illustrator 26.3.1, SVG Export Plug-In . SVG Version: 6.00 Build 0)  -->
<svg version="1.1" id="Layer_1" focusable="false" xmlns="http://www.w3.org/2000/svg" xmlns:xlink="http://www.w3.org/1999/xlink"
	 x="0px" y="0px" viewBox="0 0 69 32" style="enable-background:new 0 0 69 32;" xml:space="preserve">
<style type="text/css">
	.st0{fill:url(#SVGID_1_);}
	.st1{fill:url(#SVGID_00000178193558983671590070000005877621721269049498_);}
	.st2{fill-rule:evenodd;clip-rule:evenodd;}
	.st3{font-family:'KohinoorBangla-Medium';}
	.st4{font-size:28px;}
</style>
<path d="M22.9,4H11.4c0,1.4,0.5,2.7,1.5,3.7s2.3,1.5,3.7,1.5h2.1v2.1c0,2.9,2.3,5.2,5.2,5.2V5C23.9,4.4,23.5,4,22.9,4z"/>
<linearGradient id="SVGID_1_" gradientUnits="userSpaceOnUse" x1="-1219.1654" y1="799.8157" x2="-1219.5569" y2="799.4097" gradientTransform="matrix(12.5267 0 0 -12.4533 15290.0664 9970.1367)">
	<stop  offset="0.18" style="stop-color:#0052CC"/>
	<stop  offset="1" style="stop-color:#2684FF"/>
</linearGradient>
<path class="st0" d="M17.2,9.7H5.7c0,2.9,2.3,5.2,5.2,5.2H13V17c0,2.9,2.3,5.2,5.2,5.2V10.7C18.2,10.2,17.8,9.7,17.2,9.7z"/>
<linearGradient id="SVGID_00000024692512786155051630000008388782266590944131_" gradientUnits="userSpaceOnUse" x1="-1219.1654" y1="799.8157" x2="-1219.5569" y2="799.4097" gradientTransform="matrix(12.5267 0 0 -12.4533 15284.3604 9975.875)">
	<stop  offset="0.18" style="stop-color:#0052CC"/>
	<stop  offset="1" style="stop-color:#2684FF"/>
</linearGradient>
<path style="fill:url(#SVGID_00000024692512786155051630000008388782266590944131_);" d="M11.5,15.5H0c0,2.9,2.3,5.2,5.2,5.2h2.1
	v2.1c0,2.9,2.3,5.2,5.2,5.2V16.5C12.5,15.9,12.1,15.5,11.5,15.5z"/>
<path class="st2" d="M42.5,8.1c0,1,0.6,1.6,1.6,1.6s1.6-0.6,1.6-1.6S45,6.5,44.1,6.5S42.5,7.1,42.5,8.1z M43,24.5h2.2v-13H43V24.5z
	 M48.6,24.5h2.2v-7.7c0-2.8,1.7-3.6,4.6-3.3v-2.2c-2.5-0.2-3.8,0.9-4.6,2.5v-2.3h-2.2V24.5z M66.1,24.5v-2.3
	c-0.8,1.7-2.4,2.6-4.4,2.6c-3.5,0-5.2-2.9-5.2-6.8c0-3.7,1.8-6.8,5.5-6.8c1.9,0,3.4,0.9,4.1,2.5v-2.3h2.2v13H66.1z M58.7,18
	c0,3.1,1.2,4.7,3.6,4.7c2,0,3.8-1.3,3.8-4.2v-1c0-2.9-1.6-4.2-3.5-4.2C60,13.3,58.7,15,58.7,18z"/>
<text transform="matrix(0.7657 0 0 1 27.8546 24.5237)" class="st3 st4">F</text>
</svg>
